<svg width="50" height="50" viewBox="0 0 50 50" fill="none" xmlns="http://www.w3.org/2000/svg">
<path d="M7.28125 28.0525L9.77083 31.3109L10.3083 35.3671C10.6063 37.6171 12.375 39.388 14.625 39.688L18.6917 40.2317L21.9479 42.7192C23.75 44.0963 26.2479 44.0963 28.05 42.7192L31.3083 40.2296H31.3042L35.3625 39.6921C37.6125 39.3942 39.3833 37.6255 39.6833 35.3755L40.225 31.3088C40.225 31.3109 41.4833 29.663 42.7146 28.0525C44.0917 26.2505 44.0896 23.7525 42.7146 21.9505L40.2292 18.69L39.6917 14.6338C39.3937 12.3838 37.625 10.613 35.375 10.313L31.3062 9.77129L28.05 7.28379C26.2479 5.90671 23.75 5.90671 21.9479 7.28379L18.6896 9.77129H18.6937L14.6354 10.3109C12.3854 10.6088 10.6146 12.3775 10.3146 14.6275L9.77083 18.6942C9.77083 18.6921 8.5125 20.34 7.28125 21.9505C5.90625 23.7505 5.90625 26.2505 7.28125 28.0525V28.0525Z" stroke="#53C1B1" stroke-width="1.5" stroke-linecap="round" stroke-linejoin="round"/>
<path d="M30.84 22.0879L23.5463 29.3816L19.165 25.0046" stroke="#53C1B1" stroke-width="1.5" stroke-linecap="round" stroke-linejoin="round"/>
</svg>
