<svg width="27" height="35" viewBox="0 0 27 35" fill="none" xmlns="http://www.w3.org/2000/svg">
<g clip-path="url(#clip0_2_271)">
<path d="M24.1342 7.48057C22.9875 4.85967 21.4041 2.29337 19.493 0.163882C18.5647 -0.873559 10.5382 3.27621 9.60998 3.76763C6.98908 5.18728 4.53198 6.98915 2.6755 9.33705C1.69266 10.5383 0.928233 11.9034 0.327608 13.3776C-0.491424 15.5071 0.163802 18.5102 1.74727 20.2029C2.83931 21.4041 4.42277 22.0594 6.06084 22.387C6.27925 22.4416 6.82527 22.4416 7.42589 22.4416C7.6989 21.6771 7.97191 20.9127 8.29953 20.1483C8.62714 19.3292 8.95475 18.5102 9.33697 17.7458C9.71918 16.9268 10.0468 16.1623 10.4836 15.3979C10.702 15.0157 10.8658 14.6335 11.0842 14.2512C11.3026 13.869 11.5211 13.5414 11.6849 13.1592C12.0671 12.4494 12.5039 11.7941 12.8861 11.1389C13.3229 10.5383 13.6505 9.93767 14.0328 9.39165C15.0702 7.91739 15.8892 6.87995 16.326 6.38853L16.2168 6.66154C15.78 7.31677 15.0156 8.40881 14.1966 9.88307C13.869 10.4837 13.4867 11.1389 13.1045 11.8487C12.7769 12.5586 12.3401 13.2684 12.0125 14.0874C11.8487 14.4697 11.6303 14.8519 11.4665 15.2887C11.3026 15.7255 11.1388 16.1077 10.975 16.5445C10.5928 17.3636 10.3198 18.2372 9.9922 19.1108C9.66458 19.9845 9.44617 20.8581 9.17316 21.7317C9.06396 22.0048 9.00936 22.3324 8.95475 22.6054C8.79095 23.206 8.62714 23.752 8.51794 24.298C8.29953 25.1171 8.13572 25.9907 7.97191 26.7551C7.80811 27.5196 7.6989 28.284 7.5897 28.9938C7.48049 29.7037 7.37129 30.3043 7.31669 30.9049C7.26209 31.4509 7.20748 31.9424 7.15288 32.3792C7.09828 33.1982 7.04368 33.635 7.04368 33.635C7.04368 33.6896 7.04368 33.7442 7.04368 33.7442C7.04368 34.5087 7.6443 35.1093 8.40873 35.1093C9.17316 35.1093 9.77379 34.5087 9.77379 33.7442V33.6896C9.77379 33.6896 9.77379 33.2528 9.77379 32.4884C9.77379 32.1062 9.77379 31.6147 9.77379 31.0687C9.77379 30.5227 9.82839 29.9221 9.88299 29.2668C9.93759 28.6116 9.93759 27.8472 10.0468 27.1374C10.156 26.3729 10.2106 25.5539 10.3198 24.7349C10.3744 24.3526 10.429 23.9704 10.4836 23.5882C10.4836 23.5336 10.4836 23.5336 10.4836 23.479C10.4836 23.479 10.4836 23.479 10.5382 23.5336C10.975 24.0796 11.3026 24.5165 11.8487 25.0079L11.9033 25.0625C11.9033 25.0625 11.9579 25.0625 11.9579 25.1171C15.7254 28.0656 21.7863 27.9564 24.6802 23.8612C27.6833 19.4385 26.0998 11.8487 24.1342 7.48057Z" fill="#53C1B1"/>
</g>
<defs>
<clipPath id="clip0_2_271">
<rect width="26.3729" height="35" fill="white"/>
</clipPath>
</defs>
</svg>
