<svg width="87" height="70" viewBox="0 0 87 70" fill="none" xmlns="http://www.w3.org/2000/svg">
<path d="M46.6375 45.5972C46.6375 25.6044 60.6 4.69 82.5125 0L86.0426 8.26778C78.0963 11.515 71.1078 22.82 70.3293 30.6133C79.2658 32.1378 86.1 40.5183 86.1 50.6372C86.1 63.0117 76.8299 70 67.4486 70C56.6323 70 46.6375 61.0361 46.6375 45.5972ZM0 45.5972C0 25.6044 13.9626 4.69 35.875 0L39.4051 8.26778C31.4588 11.515 24.4703 22.82 23.6918 30.6133C32.6283 32.1378 39.4625 40.5183 39.4625 50.6372C39.4625 63.0117 30.1924 70 20.8111 70C9.99477 70 0 61.0361 0 45.5972Z" fill="white"/>
</svg>
